<svg width="20" height="20" viewBox="0 0 20 20" fill="none" xmlns="http://www.w3.org/2000/svg">
    <path d="M5.21125 13.5258C8.93586 14.9794 12.1055 15.2625 15.6974 13C15.6711 13.0395 14.9605 14.0921 13.0921 14.6316C13.4868 15.1711 14.0263 15.7895 14.0263 15.7895C15.2237 15.7895 16.3948 15.4474 17.4079 14.7895C18.1974 14.2631 18.6447 13.3552 18.5526 12.4079C18.3947 10.7895 18.0131 9.21052 17.4211 7.69739C16.6711 5.72372 14.8684 4.35528 12.7763 4.1579C12.5921 4.14474 12.4605 4.14474 12.3816 4.14474L12.1711 4.35524C14.579 5.03946 15.7764 6.10524 15.8027 6.14474C12.1053 4.2763 7.73688 4.25001 4.01316 6.06579C4.01316 6.06579 5.19738 4.89474 7.81578 4.2763L7.65789 4.11841C7.38156 4.11841 7.1184 4.14474 6.84211 4.18419C4.90789 4.51313 3.28949 5.84208 2.59211 7.67103C1.98684 9.24997 1.59211 10.9079 1.44738 12.5921C1.36844 13.4868 1.78949 14.3684 2.52633 14.8816C3.5 15.5263 4.65789 15.8684 5.82895 15.8684C5.82895 15.8684 6.30262 15.25 6.77633 14.6974C5 14.171 4.27633 13.1184 4.26316 13.0789L4.59746 13.2496C4.79731 13.3517 5.00219 13.4442 5.21125 13.5258ZM7.27633 12.3816C6.42106 12.3552 5.75 11.6316 5.77633 10.7631C5.80266 9.94735 6.46055 9.28946 7.27633 9.26313C8.1316 9.28946 8.80266 10.0131 8.77633 10.8816C8.73684 11.6974 8.09211 12.3553 7.27633 12.3816ZM12.6447 12.3816C11.7895 12.3552 11.1184 11.6316 11.1447 10.7631C11.1711 9.94735 11.8289 9.28946 12.6447 9.26313C13.5 9.28946 14.1711 10.0131 14.1447 10.8816C14.1184 11.6974 13.4605 12.3553 12.6447 12.3816Z" fill="white"/>
</svg>
