<svg width="18" height="18" viewBox="0 0 18 18" fill="none" xmlns="http://www.w3.org/2000/svg">
    <g clip-path="url(#clip0_0_311)">
        <path fill-rule="evenodd" clip-rule="evenodd" d="M17.021 8.89454C17.021 13.4465 13.3309 17.1366 8.77894 17.1366C4.22695 17.1366 0.536835 13.4465 0.536835 8.89454C0.536835 4.34255 4.22695 0.652435 8.77894 0.652435C13.3309 0.652435 17.021 4.34255 17.021 8.89454ZM9.0743 6.73712C8.27263 7.07056 6.67043 7.7607 4.26769 8.80753C3.87752 8.96269 3.67313 9.11448 3.65453 9.2629C3.62308 9.51373 3.93719 9.6125 4.36493 9.74699C4.42311 9.76529 4.4834 9.78425 4.5452 9.80434C4.96603 9.94113 5.53212 10.1012 5.8264 10.1075C6.09335 10.1133 6.39129 10.0032 6.72023 9.77737C8.96518 8.26196 10.124 7.496 10.1968 7.47949C10.2481 7.46784 10.3193 7.45319 10.3674 7.49602C10.4156 7.53886 10.4109 7.61998 10.4058 7.64174C10.3747 7.7744 9.14167 8.92071 8.5036 9.51392C8.30468 9.69885 8.16358 9.83003 8.13474 9.85999C8.07012 9.9271 8.00427 9.99058 7.94098 10.0516C7.55002 10.4285 7.25684 10.7111 7.95721 11.1727C8.29378 11.3944 8.5631 11.5778 8.83178 11.7608C9.12522 11.9607 9.4179 12.16 9.79657 12.4082C9.89305 12.4714 9.98519 12.5371 10.0749 12.6011C10.4164 12.8446 10.7232 13.0633 11.1022 13.0284C11.3225 13.0081 11.55 12.801 11.6655 12.1834C11.9386 10.7237 12.4753 7.56101 12.5993 6.25774C12.6102 6.14355 12.5965 5.99742 12.5855 5.93327C12.5745 5.86912 12.5516 5.77773 12.4682 5.71007C12.3695 5.62994 12.217 5.61304 12.1488 5.61424C11.8388 5.6197 11.3632 5.78508 9.0743 6.73712Z" fill="white"/>
    </g>
    <defs>
        <clipPath id="clip0_0_311">
            <rect width="16.4842" height="16.4842" fill="white" transform="translate(0.536835 0.652435)"/>
        </clipPath>
    </defs>
</svg>
