<svg width="17" height="18" viewBox="0 0 17 18" fill="none" xmlns="http://www.w3.org/2000/svg">
    <g clip-path="url(#clip0_0_309)">
        <path d="M5.28053 15.5913C11.4995 15.5913 14.9019 10.4377 14.9019 5.9699C14.9019 5.82502 14.8987 5.67692 14.8922 5.53204C15.5541 5.05338 16.1253 4.46049 16.579 3.78124C15.9625 4.05549 15.3081 4.23461 14.6379 4.31247C15.3435 3.88949 15.8719 3.22501 16.125 2.44222C15.4612 2.83563 14.7352 3.11315 13.9782 3.26288C13.4682 2.72093 12.7938 2.3621 12.0593 2.24185C11.3249 2.12161 10.5713 2.24666 9.91505 2.59767C9.25881 2.94868 8.73647 3.50609 8.4288 4.18373C8.12113 4.86138 8.04525 5.6215 8.21291 6.34659C6.86874 6.27914 5.55374 5.92996 4.35317 5.32169C3.1526 4.71341 2.09326 3.85963 1.24383 2.81569C0.812099 3.56004 0.67999 4.44084 0.874349 5.2791C1.06871 6.11735 1.57495 6.85015 2.29019 7.32856C1.75323 7.31151 1.22803 7.16694 0.757994 6.9068V6.94865C0.757513 7.72979 1.02756 8.48699 1.52223 9.09154C2.0169 9.69608 2.70567 10.1107 3.47145 10.2648C2.97404 10.4009 2.45199 10.4207 1.94569 10.3228C2.16178 10.9945 2.58221 11.5821 3.1483 12.0034C3.7144 12.4248 4.39791 12.6589 5.10345 12.673C3.90565 13.6139 2.42602 14.1243 0.902875 14.1219C0.632756 14.1214 0.362904 14.1049 0.0947618 14.0723C1.64212 15.065 3.44211 15.5922 5.28053 15.5913Z" fill="white"/>
    </g>
    <defs>
        <clipPath id="clip0_0_309">
            <rect width="16.4842" height="16.4842" fill="white" transform="translate(0.0947618 0.652435)"/>
        </clipPath>
    </defs>
</svg>
